# Blender v2.77 (sub 0) OBJ File: ''
# www.blender.org
mtllib house.mtl
o Cube
v 0.545507 0.545507 -0.007058
v 0.545507 -0.545507 -0.007058
v -0.545507 -0.545507 -0.007058
v -0.545507 0.545507 -0.007058
v 0.545507 0.545507 0.860428
v 0.545507 -0.545507 0.860428
v -0.545507 -0.545507 0.860428
v -0.545507 0.545507 0.860428
v -0.000000 -0.000000 1.266852
vt 0.0063 0.6628
vt 0.9832 0.6628
vt 0.4948 0.9942
vt 0.9841 0.0662
vt 0.9841 0.6628
vt 0.0071 0.6628
vt 0.0071 0.0662
vt 0.9859 0.0662
vt 0.9859 0.6628
vt 0.0090 0.6628
vt 0.0090 0.0662
vt 0.9832 0.0662
vt 0.9832 0.6628
vt 0.0063 0.6628
vt 0.0063 0.0662
vt 0.0063 0.0662
vt 0.9832 0.0662
vt 0.4974 0.9942
vt 0.4956 0.9942
vn 0.0000 0.5975 0.8019
vn 1.0000 -0.0000 -0.0000
vn -0.0000 -1.0000 -0.0000
vn -1.0000 0.0000 -0.0000
vn 0.0000 1.0000 0.0000
vn -0.0000 -0.5975 0.8019
vn -0.5975 0.0000 0.8019
vn 0.5975 -0.0000 0.8019
usemtl Material
s off
f 5/1/1 8/2/1 9/3/1
f 1/4/2 5/5/2 6/6/2 2/7/2
f 2/8/3 6/9/3 7/10/3 3/11/3
f 3/12/4 7/13/4 8/14/4 4/15/4
f 5/1/5 1/16/5 4/17/5 8/2/5
f 6/9/6 9/18/6 7/10/6
f 7/13/7 9/3/7 8/14/7
f 9/19/8 6/6/8 5/5/8
