# Blender v2.77 (sub 0) OBJ File: ''
# www.blender.org
mtllib person.mtl
o Cube
v 0.112394 0.072683 0.000000
v 0.112394 -0.072683 0.000000
v -0.112394 -0.072683 0.000000
v -0.112394 0.072683 0.000000
v 0.080612 0.067706 0.547503
v 0.080611 -0.067706 0.547503
v -0.080612 -0.067706 0.547503
v -0.080612 0.067706 0.547503
v 0.000000 0.072683 0.253089
v 0.196369 0.070194 0.368460
v -0.000000 -0.072683 0.253089
v 0.196369 -0.070194 0.368460
v -0.196369 -0.070194 0.368460
v -0.196369 0.070194 0.368460
v 0.000000 0.067706 0.604571
v -0.000000 -0.067706 0.604571
v 0.000000 0.070194 0.368460
v -0.000000 -0.070194 0.368460
vn 0.9139 -0.0000 -0.4059
vn -0.5778 0.0000 0.8162
vn 0.8398 -0.0000 0.5429
vn -0.0026 -0.9999 0.0127
vn -0.8398 0.0000 0.5429
vn -0.0074 0.9999 0.0090
vn -0.0026 0.9999 0.0127
vn 0.0026 0.9999 0.0127
vn 0.0074 0.9999 0.0090
vn -0.9750 0.0000 -0.2222
vn -0.0074 -0.9999 0.0090
vn 0.0074 -0.9999 0.0090
vn 0.0026 -0.9999 0.0127
vn 0.9750 -0.0000 -0.2222
vn 0.5778 -0.0000 0.8162
vn -0.9139 0.0000 -0.4059
usemtl Material
s off
f 9//1 11//1 3//1 4//1
f 15//2 8//2 7//2 16//2
f 10//3 5//3 6//3 12//3
f 18//4 16//4 7//4 13//4
f 13//5 7//5 8//5 14//5
f 17//6 9//6 4//6 14//6
f 15//7 17//7 14//7 8//7
f 5//8 10//8 17//8 15//8
f 10//9 1//9 9//9 17//9
f 3//10 13//10 14//10 4//10
f 11//11 18//11 13//11 3//11
f 2//12 12//12 18//12 11//12
f 12//13 6//13 16//13 18//13
f 1//14 10//14 12//14 2//14
f 5//15 15//15 16//15 6//15
f 1//16 2//16 11//16 9//16
