# Blender v2.77 (sub 0) OBJ File: ''
# www.blender.org
mtllib person.mtl
o Sphere
v -0.078901 0.000000 0.447888
v -0.127664 0.000000 0.380771
v -0.127664 0.000000 0.297810
v -0.085547 0.000000 0.156191
v -0.055791 0.055791 0.447888
v -0.090272 0.090272 0.380771
v -0.090272 0.090272 0.297810
v -0.060491 0.060491 0.156191
v 0.000000 0.078901 0.447888
v 0.000000 0.127664 0.380771
v 0.000000 0.127664 0.297810
v 0.000000 0.085547 0.156191
v 0.055791 0.055791 0.447888
v 0.090272 0.090272 0.380771
v 0.090272 0.090272 0.297810
v 0.060491 0.060491 0.156191
v 0.000000 0.000000 0.006194
v 0.078901 0.000000 0.447888
v 0.127664 0.000000 0.380771
v 0.127664 -0.000000 0.297810
v 0.085547 0.000000 0.156191
v 0.055791 -0.055791 0.447888
v 0.090272 -0.090272 0.380771
v 0.090272 -0.090272 0.297810
v 0.060491 -0.060491 0.156191
v 0.000000 -0.078901 0.447888
v 0.000000 -0.127664 0.380771
v 0.000000 -0.127664 0.297810
v 0.000000 -0.085547 0.156191
v -0.055791 -0.055791 0.447888
v -0.090272 -0.090272 0.380771
v -0.090272 -0.090272 0.297810
v -0.060491 -0.060491 0.156191
v 0.000000 0.000000 0.473525
vn -0.9573 0.0000 0.2889
vn -0.6336 0.0000 0.7736
vn -0.4480 0.4480 0.7736
vn -0.6769 0.6769 0.2889
vn 0.0000 0.0000 -1.0000
vn -0.9237 0.0000 -0.3830
vn -0.6532 0.6532 -0.3830
vn -0.9902 0.0000 -0.1393
vn -0.7002 0.7002 -0.1393
vn 0.0000 0.0000 1.0000
vn 0.0000 0.9902 -0.1393
vn 0.0000 0.9237 -0.3830
vn 0.0000 0.6336 0.7736
vn 0.0000 0.9573 0.2889
vn 0.7002 0.7002 -0.1393
vn 0.6532 0.6532 -0.3830
vn 0.4480 0.4480 0.7736
vn 0.6769 0.6769 0.2889
vn 0.9902 0.0000 -0.1393
vn 0.9237 0.0000 -0.3830
vn 0.6336 0.0000 0.7736
vn 0.9573 0.0000 0.2889
vn 0.7002 -0.7002 -0.1393
vn 0.6532 -0.6532 -0.3830
vn 0.4480 -0.4480 0.7736
vn 0.6769 -0.6769 0.2889
vn 0.0000 -0.9902 -0.1393
vn 0.0000 -0.9237 -0.3830
vn 0.0000 -0.6336 0.7736
vn 0.0000 -0.9573 0.2889
vn -0.7002 -0.7002 -0.1393
vn -0.6532 -0.6532 -0.3830
vn -0.4480 -0.4480 0.7736
vn -0.6769 -0.6769 0.2889
usemtl None
s 1
f 2//1 1//2 5//3 6//4
f 17//5 4//6 8//7
f 3//8 2//1 6//4 7//9
f 1//2 34//10 5//3
f 4//6 3//8 7//9 8//7
f 8//7 7//9 11//11 12//12
f 6//4 5//3 9//13 10//14
f 17//5 8//7 12//12
f 7//9 6//4 10//14 11//11
f 5//3 34//10 9//13
f 12//12 11//11 15//15 16//16
f 10//14 9//13 13//17 14//18
f 17//5 12//12 16//16
f 11//11 10//14 14//18 15//15
f 9//13 34//10 13//17
f 16//16 15//15 20//19 21//20
f 14//18 13//17 18//21 19//22
f 17//5 16//16 21//20
f 15//15 14//18 19//22 20//19
f 13//17 34//10 18//21
f 21//20 20//19 24//23 25//24
f 19//22 18//21 22//25 23//26
f 17//5 21//20 25//24
f 20//19 19//22 23//26 24//23
f 18//21 34//10 22//25
f 25//24 24//23 28//27 29//28
f 23//26 22//25 26//29 27//30
f 17//5 25//24 29//28
f 24//23 23//26 27//30 28//27
f 22//25 34//10 26//29
f 29//28 28//27 32//31 33//32
f 27//30 26//29 30//33 31//34
f 17//5 29//28 33//32
f 28//27 27//30 31//34 32//31
f 26//29 34//10 30//33
f 33//32 32//31 3//8 4//6
f 31//34 30//33 1//2 2//1
f 17//5 33//32 4//6
f 32//31 31//34 2//1 3//8
f 30//33 34//10 1//2
